<svg version="1.2" xmlns="http://www.w3.org/2000/svg" viewBox="0 0 2048 2048" width="2048" height="2048">
	<title>prism-triangular-figure-form-geometry-graphic-svgrepo-com</title>
	<style>
		.s0 { fill: #000000 } 
	</style>
	<g id="layer1">
		<path class="s0" d="m1622.9 105.1q-3.4 0.2-6.7 0.8-3.2 0.6-6.5 1.5-3.2 1-6.2 2.3-3.1 1.3-6 2.9l-1201.5 660.7q-0.1 0.1-0.3 0.2-0.1 0-0.2 0.1-0.1 0-0.2 0.1-0.1 0-0.3 0.1l-2.3 1.4q-3.6 2-7 4.5-3.3 2.4-6.2 5.3-3 2.9-5.5 6.2-2.6 3.3-4.6 6.8l-361.4 632.6c-3.9 6.8-6.5 14.3-7.5 22.1-1 7.8-0.5 15.7 1.6 23.3 2 7.6 5.5 14.7 10.3 21 4.7 6.2 10.7 11.5 17.4 15.4l722.9 421.7c4.5 2.6 9.3 4.6 14.3 6 4.9 1.4 10.1 2.1 15.3 2.2 5.1 0 10.3-0.6 15.3-1.8 5-1.3 9.9-3.2 14.4-5.7l0.7-0.5q0.4-0.2 0.8-0.4 0.4-0.2 0.7-0.4 0.4-0.2 0.8-0.4 0.4-0.2 0.8-0.4l1201-660.5c6.1-3.4 11.7-7.8 16.3-13.1 4.6-5.3 8.3-11.4 10.8-17.9 2.6-6.6 3.9-13.5 4.1-20.6 0.1-7-1-14-3.2-20.7l-361.5-1054.1c-2.1-6.2-5.2-12-9.1-17.2-4-5.2-8.8-9.7-14.2-13.4-5.5-3.6-11.4-6.4-17.7-8.1-6.4-1.7-12.9-2.4-19.4-2zm-30.1 147.5l321.6 938.4-1097.7 603.8-321.7-938.6zm-1185 720.7l265.9 775.3-531.5-310.1z"/>
	</g>
</svg>